<?xml version="1.0" encoding="utf-8"?>
<!-- Generator: Adobe Illustrator 16.0.0, SVG Export Plug-In . SVG Version: 6.00 Build 0)  -->
<!DOCTYPE svg PUBLIC "-//W3C//DTD SVG 1.1//EN" "http://www.w3.org/Graphics/SVG/1.1/DTD/svg11.dtd">
<svg version="1.1" id="Слой_1" xmlns="http://www.w3.org/2000/svg" xmlns:xlink="http://www.w3.org/1999/xlink" x="0px" y="0px"
	 width="118.323px" height="73.357px" viewBox="0 0 118.323 73.357" enable-background="new 0 0 118.323 73.357"
	 xml:space="preserve">
<g>
	<defs>
		<rect id="SVGID_1_" y="0" width="118.323" height="73.357"/>
	</defs>
	<clipPath id="SVGID_2_">
		<use xlink:href="#SVGID_1_"  overflow="visible"/>
	</clipPath>
	
		<polyline clip-path="url(#SVGID_2_)" fill="none" stroke="#858585" stroke-width="2.5" stroke-linecap="round" stroke-linejoin="round" stroke-miterlimit="10" points="
		8.75,1.25 86.548,1.25 86.548,46.313 33.928,46.313 	"/>
	
		<path clip-path="url(#SVGID_2_)" fill="none" stroke="#858585" stroke-width="2.5" stroke-linecap="round" stroke-linejoin="round" stroke-miterlimit="10" d="
		M50.464,52.561c-4.154,0-7.693,2.598-9.107,6.252c-0.424,1.094-0.665,2.279-0.665,3.521c0,5.398,4.375,9.773,9.772,9.773
		c5.398,0,9.773-4.375,9.773-9.773c0-1.242-0.241-2.428-0.665-3.521C58.158,55.158,54.618,52.561,50.464,52.561z"/>
	
		<path clip-path="url(#SVGID_2_)" fill="none" stroke="#858585" stroke-width="2.5" stroke-linecap="round" stroke-linejoin="round" stroke-miterlimit="10" d="
		M97.749,52.561c-4.152,0-7.692,2.598-9.107,6.252c-0.424,1.094-0.665,2.279-0.665,3.521c0,5.398,4.376,9.773,9.772,9.773
		c5.397,0,9.773-4.375,9.773-9.773c0-1.242-0.241-2.428-0.665-3.521C105.442,55.158,101.903,52.561,97.749,52.561z"/>
	
		<path clip-path="url(#SVGID_2_)" fill="none" stroke="#858585" stroke-width="2.5" stroke-linecap="round" stroke-linejoin="round" stroke-miterlimit="10" d="
		M112.421,17.965H86.547v28.348h-52.62v12.5h7.43c1.414-3.654,4.953-6.252,9.107-6.252s7.694,2.598,9.108,6.252h29.069
		c1.415-3.654,4.955-6.252,9.107-6.252c4.154,0,7.693,2.598,9.108,6.252l10.215-0.113V46.313v-24.03
		C117.072,19.899,114.99,17.965,112.421,17.965z"/>
	
		<path clip-path="url(#SVGID_2_)" fill="none" stroke="#858585" stroke-width="2.5" stroke-linecap="round" stroke-linejoin="round" stroke-miterlimit="10" d="
		M101.81,13.732c0-0.42-1.042-0.762-2.325-0.762H86.548v4.994h15.262V13.732z"/>
	
		<circle clip-path="url(#SVGID_2_)" fill="none" stroke="#858585" stroke-width="2" stroke-linecap="round" stroke-linejoin="round" stroke-miterlimit="10" cx="50.464" cy="62.334" r="3.634"/>
	
		<circle clip-path="url(#SVGID_2_)" fill="none" stroke="#858585" stroke-width="2" stroke-linecap="round" stroke-linejoin="round" stroke-miterlimit="10" cx="97.75" cy="62.334" r="3.634"/>
	
		<line clip-path="url(#SVGID_2_)" fill="none" stroke="#858585" stroke-width="2" stroke-linecap="round" stroke-linejoin="round" stroke-miterlimit="10" x1="104.652" y1="45.928" x2="109.402" y2="45.928"/>
	
		<path clip-path="url(#SVGID_2_)" fill="none" stroke="#858585" stroke-width="2" stroke-linecap="round" stroke-linejoin="round" stroke-miterlimit="10" d="
		M111.99,40.178V24.553c0-1.104-0.896-2-2-2H93.115v17.625H111.99z"/>
	
		<line clip-path="url(#SVGID_2_)" fill="none" stroke="#858585" stroke-width="2.5" stroke-linecap="round" stroke-linejoin="round" stroke-miterlimit="10" x1="33.928" y1="46.313" x2="17.75" y2="46.313"/>
	
		<line clip-path="url(#SVGID_2_)" fill="none" stroke="#858585" stroke-width="2.5" stroke-linecap="round" stroke-linejoin="round" stroke-miterlimit="10" x1="33.928" y1="13.758" x2="1.25" y2="13.758"/>
	
		<line clip-path="url(#SVGID_2_)" fill="none" stroke="#858585" stroke-width="2.5" stroke-linecap="round" stroke-linejoin="round" stroke-miterlimit="10" x1="17.589" y1="25.715" x2="32" y2="25.715"/>
	
		<line clip-path="url(#SVGID_2_)" fill="none" stroke="#858585" stroke-width="2.5" stroke-linecap="round" stroke-linejoin="round" stroke-miterlimit="10" x1="29.75" y1="37.008" x2="6.5" y2="37.008"/>
	
		<circle clip-path="url(#SVGID_2_)" fill="none" stroke="#858585" stroke-width="2" stroke-miterlimit="10" cx="59.247" cy="23.781" r="12.416"/>
</g>
</svg>
