<?xml version="1.0" encoding="utf-8"?>
<!-- Generator: Adobe Illustrator 19.2.0, SVG Export Plug-In . SVG Version: 6.00 Build 0)  -->
<svg version="1.1" id="Isolation_Mode" xmlns="http://www.w3.org/2000/svg" xmlns:xlink="http://www.w3.org/1999/xlink" x="0px"
	 y="0px" viewBox="0 0 22.9 21.7" style="enable-background:new 0 0 22.9 21.7;" xml:space="preserve">
<style type="text/css">
	.st0{fill:#838384;}
	.st1{fill-rule:evenodd;clip-rule:evenodd;fill:#838384;}
</style>
<g>
	<path class="st0" d="M5.3,9.3C5.3,9.3,5.3,9.3,5.3,9.3c-0.1,0-0.2-0.1-0.1-0.2c0.8-2.9,0.4-5.7-1-7.5c0-0.1,0-0.1,0-0.2
		c0.1,0,0.1,0,0.2,0c1.5,1.9,1.9,4.8,1.1,7.8C5.4,9.3,5.4,9.3,5.3,9.3z"/>
	<path class="st0" d="M17.5,9.3c-0.1,0-0.1,0-0.1-0.1c-0.8-3-0.4-5.9,1.1-7.8c0-0.1,0.1-0.1,0.2,0c0.1,0,0.1,0.1,0,0.2
		c-1.4,1.8-1.8,4.6-1,7.5C17.7,9.2,17.7,9.3,17.5,9.3C17.6,9.3,17.6,9.3,17.5,9.3z"/>
	<g>
		<path class="st0" d="M11.4,2.8c-1.6,0-3.1-0.9-3.8-2.3c0,0,0-0.1,0-0.1c0,0,0-0.1,0.1-0.1L8.4,0c0,0,0,0,0,0h6.1c0,0,0,0,0,0
			l0.7,0.2c0,0,0.1,0,0.1,0.1c0,0,0,0.1,0,0.1C14.5,1.9,13,2.8,11.4,2.8z M7.9,0.5c0.7,1.3,2,2,3.5,2c1.5,0,2.8-0.8,3.5-2.1
			l-0.5-0.2h-6L7.9,0.5z"/>
		<path class="st0" d="M11.4,2C10.1,2,9,1.3,8.3,0.2c0,0,0-0.1,0-0.1c0,0,0.1-0.1,0.1-0.1h5.9c0,0,0.1,0,0.1,0.1c0,0,0,0.1,0,0.1
			C13.8,1.3,12.7,2,11.4,2z M8.6,0.2c0.6,0.9,1.6,1.5,2.8,1.5c1.1,0,2.2-0.6,2.8-1.5H8.6z"/>
		<path class="st0" d="M12.1,1.6h-1.4c-0.1,0-0.1,0-0.1-0.1V0.7c0-0.1,0-0.1,0.1-0.1h1.4c0.1,0,0.1,0,0.1,0.1v0.9
			C12.2,1.6,12.2,1.6,12.1,1.6z M10.8,1.4H12V0.8h-1.2V1.4z"/>
		<path class="st0" d="M14,0.8H8.8c-0.1,0-0.1,0-0.1-0.1c0-0.1,0-0.1,0.1-0.1H14c0.1,0,0.1,0,0.1,0.1C14.1,0.7,14.1,0.8,14,0.8z"/>
	</g>
</g>
<path class="st1" d="M8.4,0.2C8.4,0.2,8.4,0.2,8.4,0.2L8.4,0.2L8.4,0.2L8.4,0.2C8.4,0.2,8.4,0.2,8.4,0.2L8.4,0.2L8.4,0.2L8.4,0.2
	l0,0.1l0,0l0,0l0,0l0,0l0,0l0,0l0,0l0,0l0,0l0,0l0,0l0,0l0,0l0,0L4.4,1.8l-3.8,8.8c-0.1,0.3-0.2,0.6-0.2,0.8c0,0.3,0,0.6,0,0.9
	l1.7,8.9l2-0.4c-0.1-1.1-0.8-6.5-0.9-7c0-0.2,0-0.3,0-0.4c0-0.1,0-0.2-0.1-0.4c-0.1-0.1-0.1-0.2-0.1-0.3h0c0-0.1,0-0.2,0-0.3
	c0-0.1,0.1-0.2,0.2-0.2c0,0,0,0,0,0c0,0,0,0,0.1,0l0,0c0,0,0,0,0,0c0,0,0,0,0-0.1c0,0,0,0,0,0c-0.1-0.3,0-0.6,0.2-0.9c0,0,0,0,0,0
	l0,0c0.2-0.3,1.5-1.9,1.5-2C5.2,9,5.4,9,5.4,9.1c0,0,0.1,0.1,0.1,0.1c1,3.3,0.5,6.2,0,9.1c-0.2,1-0.3,2-0.4,3h12.7l0,0
	c-0.1-1-0.3-2-0.4-3c-0.5-2.9-1-5.9,0-9.1c0-0.1,0.2-0.2,0.3-0.1c0,0,0.1,0,0.1,0.1l0,0c0,0,1.3,1.7,1.5,2c0,0,0,0,0,0l0,0
	c0.2,0.3,0.4,0.6,0.2,0.9c0,0,0,0,0,0v0l0,0c0,0,0,0,0,0.1c0,0,0,0,0,0c0,0,0.1,0,0.1,0c0,0,0,0,0,0c0.1,0,0.1,0.1,0.2,0.2
	c0,0.1,0.1,0.2,0,0.3c0,0.1,0,0.2-0.1,0.3c-0.1,0.2-0.1,0.2-0.1,0.4c0,0.1,0,0.2,0,0.4c-0.1,0.5-0.7,5.9-0.9,7l2,0.4l1.7-8.9
	c0.1-0.3,0.1-0.6,0-0.9c0-0.3-0.1-0.6-0.2-0.8l-3.8-8.8l-3.9-1.3c0-0.1,0-0.2-0.1-0.2 M14.6,0l4.1,1.4l0,0c0.1,0,0.1,0.1,0.1,0.1
	l3.8,8.9c0.1,0.3,0.2,0.6,0.3,1c0,0.3,0,0.6,0,1L21,21.4l0,0c0,0.1-0.1,0.2-0.2,0.2l-2.4-0.4l0,0c-0.1,0-0.2-0.1-0.2-0.2
	c0,0,0.8-6.6,0.9-7.2c0-0.2,0-0.3,0-0.4c0-0.2,0-0.3,0.1-0.5c0-0.1,0.1-0.1,0.1-0.2c0,0,0-0.1,0-0.1c0,0,0,0-0.1,0v0
	c-0.1,0-0.2-0.1-0.2-0.2C19,12.2,18.9,12.1,19,12h0c0-0.1,0-0.1,0-0.2c0.1-0.1-0.1-0.3-0.2-0.5l0,0c0,0,0,0,0,0
	c-0.1-0.2-0.8-1.1-1.2-1.6c-0.8,3-0.3,5.8,0.1,8.5l0,0c0.2,1.1,0.4,2.2,0.5,3.3c0,0,0,0,0,0c0,0.1-0.1,0.2-0.2,0.2H4.8v0
	c0,0,0,0,0,0c-0.1,0-0.2-0.1-0.2-0.2c0.1-1.1,0.3-2.2,0.5-3.3c0.5-2.7,0.9-5.5,0.1-8.5c-0.4,0.5-1.1,1.4-1.2,1.6l0,0c0,0,0,0,0,0
	c-0.1,0.2-0.2,0.4-0.2,0.5c0,0.1,0,0.1,0,0.2c0,0.1,0,0.3-0.1,0.3c-0.1,0.1-0.1,0.1-0.2,0.2c0,0,0,0,0,0c0,0,0,0-0.1,0
	c0,0,0,0,0,0.1h0l0,0c0,0.1,0,0.1,0.1,0.2c0.1,0.3,0.1,0.4,0.1,0.5c0,0.1,0,0.2,0,0.4c0.1,0.5,0.9,7.2,0.9,7.2h0
	c0,0.1-0.1,0.2-0.2,0.2l-2.4,0.4c0,0,0,0,0,0c-0.1,0-0.2-0.1-0.2-0.2L0,12.3C0,12,0,11.7,0,11.3c0-0.3,0.1-0.6,0.3-1l3.8-8.9
	c0-0.1,0.1-0.1,0.1-0.1L8.3,0 M19.4,12.1L19.4,12.1L19.4,12.1L19.4,12.1L19.4,12.1z"/>
</svg>
