<?xml version="1.0" encoding="utf-8"?>
<!-- Generator: Adobe Illustrator 16.0.0, SVG Export Plug-In . SVG Version: 6.00 Build 0)  -->
<!DOCTYPE svg PUBLIC "-//W3C//DTD SVG 1.1//EN" "http://www.w3.org/Graphics/SVG/1.1/DTD/svg11.dtd">
<svg version="1.1" id="Слой_1" xmlns="http://www.w3.org/2000/svg" xmlns:xlink="http://www.w3.org/1999/xlink" x="0px" y="0px"
	 width="84.565px" height="67.083px" viewBox="0 0 84.565 67.083" enable-background="new 0 0 84.565 67.083" xml:space="preserve">
<line fill="none" stroke="#858585" stroke-width="2" stroke-linecap="round" stroke-linejoin="round" stroke-miterlimit="10" x1="15.542" y1="45.722" x2="17.504" y2="50.502"/>
<line fill="none" stroke="#858585" stroke-width="2" stroke-linecap="round" stroke-linejoin="round" stroke-miterlimit="10" x1="19.932" y1="43.92" x2="20.913" y2="46.31"/>
<line fill="none" stroke="#858585" stroke-width="2" stroke-linecap="round" stroke-linejoin="round" stroke-miterlimit="10" x1="24.809" y1="41.918" x2="26.771" y2="46.698"/>
<line fill="none" stroke="#858585" stroke-width="2" stroke-linecap="round" stroke-linejoin="round" stroke-miterlimit="10" x1="29.361" y1="40.049" x2="30.342" y2="42.44"/>
<line fill="none" stroke="#858585" stroke-width="2" stroke-linecap="round" stroke-linejoin="round" stroke-miterlimit="10" x1="34.645" y1="37.881" x2="36.607" y2="42.66"/>
<line fill="none" stroke="#858585" stroke-width="2" stroke-linecap="round" stroke-linejoin="round" stroke-miterlimit="10" x1="39.035" y1="36.079" x2="40.016" y2="38.468"/>
<line fill="none" stroke="#858585" stroke-width="2" stroke-linecap="round" stroke-linejoin="round" stroke-miterlimit="10" x1="43.911" y1="34.077" x2="45.872" y2="38.856"/>
<line fill="none" stroke="#858585" stroke-width="2" stroke-linecap="round" stroke-linejoin="round" stroke-miterlimit="10" x1="48.464" y1="32.208" x2="49.444" y2="34.598"/>
<line fill="none" stroke="#858585" stroke-width="2" stroke-linecap="round" stroke-linejoin="round" stroke-miterlimit="10" x1="53.097" y1="30.306" x2="55.058" y2="35.085"/>
<line fill="none" stroke="#858585" stroke-width="2" stroke-linecap="round" stroke-linejoin="round" stroke-miterlimit="10" x1="57.647" y1="28.438" x2="58.628" y2="30.827"/>
<line fill="none" stroke="#858585" stroke-width="2" stroke-linecap="round" stroke-linejoin="round" stroke-miterlimit="10" x1="63.259" y1="26.135" x2="65.22" y2="30.914"/>
<line fill="none" stroke="#858585" stroke-width="2" stroke-linecap="round" stroke-linejoin="round" stroke-miterlimit="10" x1="67.81" y1="24.267" x2="68.79" y2="26.656"/>
<line fill="none" stroke="#858585" stroke-width="2" stroke-linecap="round" stroke-linejoin="round" stroke-miterlimit="10" x1="20.352" y1="57.44" x2="36.31" y2="50.888"/>
<line fill="none" stroke="#858585" stroke-width="2" stroke-linecap="round" stroke-linejoin="round" stroke-miterlimit="10" x1="22.061" y1="61.603" x2="47.964" y2="50.969"/>
<g>
	<defs>
		<rect id="SVGID_1_" y="0" width="84.565" height="67.083"/>
	</defs>
	<clipPath id="SVGID_2_">
		<use xlink:href="#SVGID_1_"  overflow="visible"/>
	</clipPath>
	
		<circle clip-path="url(#SVGID_2_)" fill="none" stroke="#858585" stroke-width="2" stroke-linecap="round" stroke-linejoin="round" stroke-miterlimit="10" cx="58.648" cy="15.775" r="5.25"/>
	
		<path clip-path="url(#SVGID_2_)" fill="none" stroke="#858585" stroke-width="2" stroke-linecap="round" stroke-linejoin="round" stroke-miterlimit="10" d="
		M27.196,28.687c0.97,2.363-0.16,5.065-2.522,6.035l-7.401,3.038c-2.363,0.971-5.065-0.158-6.035-2.521
		c-0.97-2.363,0.159-5.065,2.522-6.035l7.401-3.038C23.524,25.195,26.226,26.324,27.196,28.687z"/>
	
		<path clip-path="url(#SVGID_2_)" fill="none" stroke="#858585" stroke-width="2.5" stroke-linecap="round" stroke-linejoin="round" stroke-miterlimit="10" d="
		M81.454,44.338c1.531-0.629,2.267-2.382,1.636-3.915L67.772,3.111c-0.629-1.532-2.38-2.265-3.914-1.636L3.111,26.413
		c-1.532,0.629-2.265,2.382-1.636,3.914l14.576,35.507H29.09L81.454,44.338z"/>
	
		<line clip-path="url(#SVGID_2_)" fill="none" stroke="#858585" stroke-width="2.5" stroke-linecap="round" stroke-linejoin="round" stroke-miterlimit="10" x1="1.25" y1="65.833" x2="71.274" y2="65.833"/>
</g>
</svg>
