<?xml version="1.0" encoding="utf-8"?>
<!-- Generator: Adobe Illustrator 19.2.0, SVG Export Plug-In . SVG Version: 6.00 Build 0)  -->
<svg version="1.1" id="Isolation_Mode" xmlns="http://www.w3.org/2000/svg" xmlns:xlink="http://www.w3.org/1999/xlink" x="0px"
	 y="0px" viewBox="0 0 22.6 24.8" style="enable-background:new 0 0 22.6 24.8;" xml:space="preserve">
<style type="text/css">
	.st0{fill:#838384;}
</style>
<g>
	<path class="st0" d="M4.2,12.6C4.1,12.6,4.1,12.6,4.2,12.6l-3.6-2.3c-0.1,0-0.1-0.1,0-0.2c0-0.1,0.1-0.1,0.2,0l3.5,2.3
		c0.1,0,0.1,0.1,0,0.2C4.3,12.6,4.2,12.6,4.2,12.6z M5.2,10.9C5.2,10.9,5.2,10.9,5.2,10.9c-0.1,0-0.2-0.1-0.1-0.2
		C5.8,7.8,5.4,5,4,3.2C4,3.2,4,3.1,4,3c0.1,0,0.1,0,0.2,0c1.5,1.9,1.9,4.8,1.1,7.8C5.3,10.9,5.2,10.9,5.2,10.9z"/>
	<path class="st0" d="M18,24.8C18,24.8,18,24.8,18,24.8H4.6c-0.1,0-0.2-0.1-0.2-0.2c0-1.6,0.3-3.2,0.5-4.8c0.5-2.7,0.9-5.5,0.2-8.5
		c-0.4,0.7-1.1,1.9-1.2,2c0,0-0.1,0.1-0.1,0.1c-0.1,0-0.1,0-0.2,0l-3.5-2.2C0,11.2,0,11,0,10.9l3.9-7.9C4,3,4,3,4.1,2.9l4-1.4
		l0.7-1.4C8.8,0,8.9,0,9,0h4.7c0.1,0,0.2,0,0.2,0.1l0.7,1.4l4,1.4c0.1,0,0.1,0.1,0.1,0.1l3.9,7.9c0,0.1,0,0.2-0.1,0.3L19,13.4
		c0,0-0.1,0-0.2,0c-0.1,0-0.1,0-0.1-0.1c-0.1-0.2-0.8-1.4-1.2-2c-0.8,3-0.3,5.8,0.2,8.5c0.3,1.6,0.5,3.2,0.5,4.8c0,0,0,0,0,0.1
		C18.2,24.7,18.1,24.8,18,24.8z M4.8,24.4h12.9c0-1.5-0.3-3-0.5-4.5c-0.5-2.9-1-5.9,0-9.1c0-0.1,0.1-0.1,0.2-0.1
		c0.1,0,0.2,0,0.2,0.1c0,0,1,1.7,1.4,2.3l3.2-2l-3.8-7.6l-4-1.4c-0.1,0-0.1-0.1-0.1-0.1l0-0.1l-0.6-1.3H9.1L8.5,1.7c0,0,0,0,0,0
		c0,0,0,0,0,0c0,0,0,0,0,0c0,0.1-0.1,0.1-0.1,0.1l-4,1.4L0.5,11l3.2,2C4,12.3,5,10.7,5,10.7c0-0.1,0.1-0.1,0.2-0.1
		c0.1,0,0.2,0.1,0.2,0.1c1,3.3,0.5,6.2,0,9.1C5.1,21.4,4.9,22.9,4.8,24.4z"/>
	<path class="st0" d="M18.4,12.6c0,0-0.1,0-0.1-0.1c0-0.1,0-0.2,0-0.2l3.5-2.3c0.1,0,0.2,0,0.2,0c0,0.1,0,0.2,0,0.2L18.4,12.6
		C18.5,12.6,18.4,12.6,18.4,12.6z M17.4,10.9c-0.1,0-0.1,0-0.1-0.1c-0.8-3-0.4-5.9,1.1-7.8c0-0.1,0.1-0.1,0.2,0c0.1,0,0.1,0.1,0,0.2
		c-1.4,1.8-1.8,4.6-1,7.5C17.6,10.8,17.5,10.9,17.4,10.9C17.4,10.9,17.4,10.9,17.4,10.9z"/>
	<path class="st0" d="M11.3,3.7c-0.2,0-0.3-0.2-0.3-0.3C11,3.1,11.1,3,11.3,3c0.2,0,0.3,0.2,0.3,0.3C11.6,3.5,11.5,3.7,11.3,3.7z
		 M11.3,3.2c-0.1,0-0.1,0.1-0.1,0.1s0.1,0.1,0.1,0.1c0.1,0,0.1-0.1,0.1-0.1S11.4,3.2,11.3,3.2z"/>
	<path class="st0" d="M11.3,5.8c-0.2,0-0.3-0.2-0.3-0.3c0-0.2,0.2-0.3,0.3-0.3c0.2,0,0.3,0.2,0.3,0.3C11.6,5.6,11.5,5.8,11.3,5.8z
		 M11.3,5.3c-0.1,0-0.1,0.1-0.1,0.1c0,0.1,0.1,0.1,0.1,0.1c0.1,0,0.1-0.1,0.1-0.1C11.4,5.4,11.4,5.3,11.3,5.3z"/>
	<path class="st0" d="M11.3,7.8c-0.2,0-0.3-0.2-0.3-0.3c0-0.2,0.2-0.3,0.3-0.3c0.2,0,0.3,0.2,0.3,0.3C11.6,7.6,11.5,7.8,11.3,7.8z
		 M11.3,7.3c-0.1,0-0.1,0.1-0.1,0.1c0,0.1,0.1,0.1,0.1,0.1c0.1,0,0.1-0.1,0.1-0.1C11.4,7.4,11.4,7.3,11.3,7.3z"/>
	<path class="st0" d="M16.2,7.9H13c-0.1,0-0.1-0.1-0.1-0.1c0-0.1,0.1-0.1,0.1-0.1h3.2c0.1,0,0.1,0.1,0.1,0.1
		C16.3,7.8,16.3,7.9,16.2,7.9z"/>
	<path class="st0" d="M12,9h-1.5c-0.1,0-0.1-0.1-0.1-0.1c0-0.1,0.1-0.1,0.1-0.1H12c0.1,0,0.1,0.1,0.1,0.1C12.2,9,12.1,9,12,9z"/>
	<path class="st0" d="M10.6,9c-0.1,0-0.1-0.1-0.1-0.1V2.7c0-0.1,0.1-0.1,0.1-0.1c0.1,0,0.1,0.1,0.1,0.1v6.2C10.7,9,10.6,9,10.6,9z"
		/>
	<path class="st0" d="M12,9C12,9,11.9,9,11.9,8.9V2.7c0-0.1,0.1-0.1,0.1-0.1c0.1,0,0.1,0.1,0.1,0.1v6.2C12.2,9,12.1,9,12,9z"/>
	<path class="st0" d="M9.2,4.4C9.1,4.4,9.1,4.3,9.2,4.4c-1-0.8-1.3-1.8-1-2.7l0.7-1.5c0-0.1,0.1-0.1,0.2-0.1c0.1,0,0.1,0.1,0.1,0.2
		C9,0.9,9.3,1.3,9.5,1.6c0.5,0.6,1.3,0.9,1.8,0.9c0.5,0,1.2-0.3,1.8-0.9c0.3-0.3,0.5-0.8,0.5-1.4c0-0.1,0-0.1,0.1-0.2
		c0.1,0,0.1,0,0.2,0.1l0.7,1.5c0.3,1,0,2-0.9,2.7c0,0-0.1,0-0.1,0c0,0-0.1,0-0.1-0.1c-0.8-1.1-1.2-1.4-2-1.5c-0.8,0.1-1.2,0.4-2,1.5
		C9.3,4.3,9.2,4.3,9.2,4.4C9.2,4.4,9.2,4.4,9.2,4.4z M12,2.7c0.5,0.2,0.9,0.6,1.4,1.3c0.7-0.6,1-1.5,0.7-2.3l-0.4-0.9
		c-0.1,0.4-0.2,0.7-0.5,1C12.9,2.2,12.5,2.5,12,2.7z M8.8,0.8L8.4,1.7C8.1,2.5,8.4,3.4,9.1,4c0.5-0.7,0.9-1.1,1.5-1.3
		c-0.5-0.2-0.9-0.5-1.3-0.9C9.1,1.5,8.9,1.2,8.8,0.8z"/>
	<path class="st0" d="M11.3,2.8c-0.7,0-1.5-0.4-2-1C8.9,1.3,8.7,0.8,8.8,0.2c0-0.1,0.1-0.1,0.1-0.1h4.7c0.1,0,0.1,0.1,0.1,0.1
		c0.1,0.6-0.1,1.1-0.5,1.6C12.8,2.4,11.9,2.8,11.3,2.8z M9.1,0.4c0,0.6,0.2,1,0.5,1.3c0.5,0.6,1.3,0.9,1.8,0.9
		c0.5,0,1.2-0.3,1.8-0.9c0.2-0.3,0.5-0.7,0.5-1.3H9.1z"/>
	<path class="st0" d="M13.2,1.9H9.4c-0.1,0-0.1-0.1-0.1-0.1s0.1-0.1,0.1-0.1h3.7c0.1,0,0.1,0.1,0.1,0.1S13.2,1.9,13.2,1.9z"/>
	<path class="st0" d="M9.2,4.4C9.1,4.4,9.1,4.3,9.2,4.4c-1-0.8-1.3-1.8-1-2.7l0.7-1.5c0-0.1,0.1-0.1,0.2-0.1c0.1,0,0.1,0.1,0.1,0.2
		C9,0.9,9.3,1.3,9.5,1.6c0.5,0.6,1.3,0.9,1.8,0.9c0.1,0,0.1,0.1,0.1,0.1c0,0.1-0.1,0.1-0.1,0.1c-0.8,0.1-1.2,0.3-2,1.5
		C9.3,4.3,9.2,4.3,9.2,4.4C9.2,4.4,9.2,4.4,9.2,4.4z M8.8,0.8L8.4,1.7C8.1,2.5,8.4,3.4,9.1,4c0.5-0.7,0.9-1.1,1.5-1.3
		c-0.5-0.2-0.9-0.5-1.3-0.9C9.1,1.5,8.9,1.2,8.8,0.8z"/>
	<path class="st0" d="M14.6,8.8c-0.2,0-0.3-0.2-0.3-0.3c0-0.2,0.2-0.3,0.3-0.3c0.2,0,0.3,0.2,0.3,0.3C14.9,8.7,14.8,8.8,14.6,8.8z
		 M14.6,8.3c-0.1,0-0.1,0.1-0.1,0.1s0.1,0.1,0.1,0.1c0.1,0,0.1-0.1,0.1-0.1S14.6,8.3,14.6,8.3z"/>
</g>
</svg>
