<?xml version="1.0" encoding="utf-8"?>
<!-- Generator: Adobe Illustrator 19.2.0, SVG Export Plug-In . SVG Version: 6.00 Build 0)  -->
<svg version="1.1" id="Isolation_Mode" xmlns="http://www.w3.org/2000/svg" xmlns:xlink="http://www.w3.org/1999/xlink" x="0px"
	 y="0px" viewBox="0 0 22.6 24.8" style="enable-background:new 0 0 22.6 24.8;" xml:space="preserve">
<style type="text/css">
	.st0{fill:#838384;}
	.st1{fill-rule:evenodd;clip-rule:evenodd;fill:#838384;}
</style>
<g>
	<path class="st0" d="M4.2,12.5C4.1,12.5,4.1,12.5,4.2,12.5l-3.6-2.3c-0.1,0-0.1-0.1,0-0.2c0-0.1,0.1-0.1,0.2,0l3.5,2.3
		c0.1,0,0.1,0.1,0,0.2C4.3,12.5,4.2,12.5,4.2,12.5z M5.2,10.9C5.2,10.9,5.2,10.9,5.2,10.9c-0.1,0-0.2-0.1-0.1-0.2
		C5.8,7.8,5.4,5,4,3.2C4,3.1,4,3,4,3c0.1,0,0.1,0,0.2,0c1.5,1.9,1.9,4.8,1.1,7.8C5.3,10.8,5.2,10.9,5.2,10.9z"/>
	<g>
		<circle class="st1" cx="11.3" cy="3.3" r="0.2"/>
		<path class="st0" d="M11.3,3.7c-0.2,0-0.3-0.2-0.3-0.3C11,3.1,11.1,3,11.3,3c0.2,0,0.3,0.2,0.3,0.3C11.6,3.5,11.5,3.7,11.3,3.7z
			 M11.3,3.2c-0.1,0-0.1,0.1-0.1,0.1c0,0.1,0.1,0.1,0.1,0.1c0.1,0,0.1-0.1,0.1-0.1C11.4,3.3,11.4,3.2,11.3,3.2z"/>
	</g>
	<g>
		<circle class="st1" cx="11.3" cy="6" r="0.2"/>
		<path class="st0" d="M11.3,6.3C11.1,6.3,11,6.2,11,6c0-0.2,0.2-0.3,0.3-0.3c0.2,0,0.3,0.2,0.3,0.3C11.6,6.2,11.5,6.3,11.3,6.3z
			 M11.3,5.9c-0.1,0-0.1,0.1-0.1,0.1s0.1,0.1,0.1,0.1c0.1,0,0.1-0.1,0.1-0.1S11.4,5.9,11.3,5.9z"/>
	</g>
	<g>
		<circle class="st1" cx="11.3" cy="8.6" r="0.2"/>
		<path class="st0" d="M11.3,9C11.1,9,11,8.8,11,8.6c0-0.2,0.2-0.3,0.3-0.3c0.2,0,0.3,0.2,0.3,0.3C11.6,8.8,11.5,9,11.3,9z
			 M11.3,8.5c-0.1,0-0.1,0.1-0.1,0.1c0,0.1,0.1,0.1,0.1,0.1c0.1,0,0.1-0.1,0.1-0.1C11.4,8.6,11.4,8.5,11.3,8.5z"/>
	</g>
	<g>
		<circle class="st1" cx="11.3" cy="11.3" r="0.2"/>
		<path class="st0" d="M11.3,11.6c-0.2,0-0.3-0.2-0.3-0.3c0-0.2,0.2-0.3,0.3-0.3c0.2,0,0.3,0.2,0.3,0.3
			C11.6,11.5,11.5,11.6,11.3,11.6z M11.3,11.2c-0.1,0-0.1,0.1-0.1,0.1s0.1,0.1,0.1,0.1c0.1,0,0.1-0.1,0.1-0.1S11.4,11.2,11.3,11.2z"
			/>
	</g>
	<g>
		<circle class="st1" cx="11.3" cy="14" r="0.2"/>
		<path class="st0" d="M11.3,14.3c-0.2,0-0.3-0.2-0.3-0.3c0-0.2,0.2-0.3,0.3-0.3c0.2,0,0.3,0.2,0.3,0.3
			C11.6,14.1,11.5,14.3,11.3,14.3z M11.3,13.8c-0.1,0-0.1,0.1-0.1,0.1s0.1,0.1,0.1,0.1c0.1,0,0.1-0.1,0.1-0.1S11.4,13.8,11.3,13.8z"
			/>
	</g>
	<g>
		<circle class="st1" cx="11.3" cy="16.6" r="0.2"/>
		<path class="st0" d="M11.3,17c-0.2,0-0.3-0.2-0.3-0.3c0-0.2,0.2-0.3,0.3-0.3c0.2,0,0.3,0.2,0.3,0.3C11.6,16.8,11.5,17,11.3,17z
			 M11.3,16.5c-0.1,0-0.1,0.1-0.1,0.1c0,0.1,0.1,0.1,0.1,0.1c0.1,0,0.1-0.1,0.1-0.1C11.4,16.5,11.4,16.5,11.3,16.5z"/>
	</g>
	<g>
		<circle class="st1" cx="11.3" cy="19.3" r="0.2"/>
		<path class="st0" d="M11.3,19.6c-0.2,0-0.3-0.2-0.3-0.3c0-0.2,0.2-0.3,0.3-0.3c0.2,0,0.3,0.2,0.3,0.3
			C11.6,19.5,11.5,19.6,11.3,19.6z M11.3,19.1c-0.1,0-0.1,0.1-0.1,0.1c0,0.1,0.1,0.1,0.1,0.1c0.1,0,0.1-0.1,0.1-0.1
			C11.4,19.2,11.4,19.1,11.3,19.1z"/>
	</g>
	<g>
		<circle class="st1" cx="11.3" cy="21.9" r="0.2"/>
		<path class="st0" d="M11.3,22.3c-0.2,0-0.3-0.2-0.3-0.3c0-0.2,0.2-0.3,0.3-0.3c0.2,0,0.3,0.2,0.3,0.3
			C11.6,22.1,11.5,22.3,11.3,22.3z M11.3,21.8c-0.1,0-0.1,0.1-0.1,0.1c0,0.1,0.1,0.1,0.1,0.1c0.1,0,0.1-0.1,0.1-0.1
			C11.4,21.9,11.4,21.8,11.3,21.8z"/>
	</g>
	<path class="st0" d="M10.6,24.7c-0.1,0-0.1-0.1-0.1-0.1V2.9c0-0.1,0.1-0.1,0.1-0.1s0.1,0.1,0.1,0.1v21.7
		C10.7,24.6,10.6,24.7,10.6,24.7z"/>
	<path class="st0" d="M12,24.7c-0.1,0-0.1-0.1-0.1-0.1V2.9c0-0.1,0.1-0.1,0.1-0.1c0.1,0,0.1,0.1,0.1,0.1v21.7
		C12.2,24.6,12.1,24.7,12,24.7z"/>
	<path class="st0" d="M9.2,4.4C9.1,4.4,9.1,4.3,9.2,4.4c-1-0.8-1.3-1.8-1-2.7l0.7-1.5c0-0.1,0.1-0.1,0.2-0.1c0.1,0,0.1,0.1,0.1,0.2
		C9,0.9,9.3,1.3,9.5,1.6c0.5,0.6,1.3,0.9,1.8,0.9c0.5,0,1.2-0.3,1.8-0.9c0.3-0.3,0.5-0.8,0.5-1.4c0-0.1,0-0.1,0.1-0.2
		c0.1,0,0.1,0,0.2,0.1l0.7,1.5c0.3,1,0,2-0.9,2.7c0,0-0.1,0-0.1,0c0,0-0.1,0-0.1-0.1c-0.8-1.1-1.2-1.4-2-1.5c-0.8,0.1-1.2,0.4-2,1.5
		C9.3,4.3,9.2,4.3,9.2,4.4C9.2,4.4,9.2,4.4,9.2,4.4z M12,2.7c0.5,0.2,0.9,0.6,1.4,1.3c0.7-0.6,1-1.5,0.7-2.3l-0.4-0.9
		c-0.1,0.4-0.2,0.7-0.5,1C12.9,2.2,12.5,2.5,12,2.7z M8.8,0.8L8.4,1.7C8.1,2.5,8.4,3.4,9.1,4c0.5-0.7,0.9-1.1,1.5-1.3
		c-0.5-0.2-0.9-0.5-1.3-0.9C9.1,1.5,8.9,1.2,8.8,0.8z"/>
	<path class="st0" d="M11.3,2.8c-0.7,0-1.5-0.4-2-1C8.9,1.3,8.7,0.8,8.8,0.2c0-0.1,0.1-0.1,0.1-0.1h4.7c0.1,0,0.1,0.1,0.1,0.1
		c0.1,0.6-0.1,1.1-0.5,1.6C12.8,2.4,11.9,2.8,11.3,2.8z M9.1,0.4c0,0.6,0.2,1,0.5,1.3c0.5,0.6,1.3,0.9,1.8,0.9
		c0.5,0,1.2-0.3,1.8-0.9c0.2-0.3,0.5-0.7,0.5-1.3H9.1z"/>
	<path class="st0" d="M13.2,1.9H9.4c-0.1,0-0.1-0.1-0.1-0.1s0.1-0.1,0.1-0.1h3.7c0.1,0,0.1,0.1,0.1,0.1S13.2,1.9,13.2,1.9z"/>
	<path class="st0" d="M9.2,4.4C9.1,4.4,9.1,4.3,9.2,4.4c-1-0.8-1.3-1.8-1-2.7l0.7-1.5c0-0.1,0.1-0.1,0.2-0.1c0.1,0,0.1,0.1,0.1,0.2
		C9,0.9,9.3,1.3,9.5,1.6c0.5,0.6,1.3,0.9,1.8,0.9c0.1,0,0.1,0.1,0.1,0.1c0,0.1-0.1,0.1-0.1,0.1c-0.8,0.1-1.2,0.3-2,1.5
		C9.3,4.3,9.2,4.3,9.2,4.4C9.2,4.4,9.2,4.4,9.2,4.4z M8.8,0.8L8.4,1.7C8.1,2.5,8.4,3.4,9.1,4c0.5-0.7,0.9-1.1,1.5-1.3
		c-0.5-0.2-0.9-0.5-1.3-0.9C9.1,1.5,8.9,1.2,8.8,0.8z"/>
	<path class="st1" d="M11.3,24.8H4.6c-0.1,0-0.2-0.1-0.2-0.2c0-1.6,0.3-3.2,0.5-4.8c0.5-2.7,0.9-5.5,0.2-8.5c-0.4,0.7-1.1,1.9-1.2,2
		c-0.1,0.1-0.2,0.1-0.3,0.1l0,0l0,0l-3.5-2.2C0,11.1,0,11,0,10.9l0,0L3.9,3C4,2.9,4,2.9,4.1,2.9v0l4.1-1.4l0.6-1.4C8.8,0,8.9,0,9,0
		v0h2.3h2.3c0.1,0,0.2,0.1,0.2,0.1l0.6,1.4l4.1,1.4c0.1,0,0.1,0.1,0.1,0.1l3.9,7.9c0.1,0.1,0,0.2-0.1,0.3L19,13.4
		c-0.1,0.1-0.2,0-0.3-0.1c0,0,0,0,0,0c-0.1-0.2-0.8-1.4-1.2-2c-0.8,3-0.3,5.8,0.2,8.5c0.3,1.6,0.5,3.2,0.5,4.8
		c0,0.1-0.1,0.2-0.2,0.2H11.3L11.3,24.8z M4.8,24.3h6.5h6.5c0-1.5-0.3-3-0.5-4.5c-0.5-2.9-1-5.9,0-9.1c0-0.1,0-0.1,0.1-0.1
		c0.1-0.1,0.2,0,0.3,0.1c0,0,1,1.7,1.4,2.3l3.2-2l-3.8-7.6l-3.9-1.3c0-0.1,0-0.2-0.1-0.2c-0.2-0.5-0.5-1-0.7-1.5c0,0.2,0,0.3,0,0.5
		l-0.1-0.3h-2.2H9.1L8.9,0.7c0-0.2,0-0.3,0-0.5c-0.2,0.5-0.5,1-0.7,1.5c0,0.1,0,0.2-0.1,0.2L4.3,3.3l-3.8,7.6l3.2,2
		C4,12.3,5,10.6,5,10.6h0c0,0,0.1-0.1,0.1-0.1c0.1,0,0.2,0,0.3,0.1c1,3.3,0.5,6.2,0,9.1C5.1,21.3,4.9,22.8,4.8,24.3z"/>
	<path class="st0" d="M18.4,12.5c0,0-0.1,0-0.1-0.1c0-0.1,0-0.2,0-0.2l3.5-2.3c0.1,0,0.2,0,0.2,0c0,0.1,0,0.2,0,0.2L18.4,12.5
		C18.5,12.5,18.4,12.5,18.4,12.5z M17.4,10.9c-0.1,0-0.1,0-0.1-0.1c-0.8-3-0.4-5.9,1.1-7.8c0-0.1,0.1-0.1,0.2,0c0.1,0,0.1,0.1,0,0.2
		c-1.4,1.8-1.8,4.6-1,7.5C17.6,10.8,17.5,10.8,17.4,10.9C17.4,10.9,17.4,10.9,17.4,10.9z"/>
</g>
</svg>
