<?xml version="1.0" encoding="utf-8"?>
<!-- Generator: Adobe Illustrator 16.0.0, SVG Export Plug-In . SVG Version: 6.00 Build 0)  -->
<!DOCTYPE svg PUBLIC "-//W3C//DTD SVG 1.1//EN" "http://www.w3.org/Graphics/SVG/1.1/DTD/svg11.dtd">
<svg version="1.1" id="Слой_1" xmlns="http://www.w3.org/2000/svg" xmlns:xlink="http://www.w3.org/1999/xlink" x="0px" y="0px"
	 width="22.597px" height="23.296px" viewBox="0 0 22.597 23.296" enable-background="new 0 0 22.597 23.296" xml:space="preserve">
<g>
	<defs>
		<rect id="SVGID_1_" y="0" width="22.596" height="23.296"/>
	</defs>
	<clipPath id="SVGID_2_">
		<use xlink:href="#SVGID_1_"  overflow="visible"/>
	</clipPath>
	<path clip-path="url(#SVGID_2_)" fill="#858585" d="M4.173,11.083c-0.026,0-0.053-0.008-0.077-0.023L0.57,8.766
		c-0.066-0.043-0.084-0.13-0.041-0.194C0.571,8.505,0.658,8.488,0.723,8.53l3.526,2.295c0.066,0.042,0.084,0.13,0.041,0.195
		C4.264,11.061,4.219,11.083,4.173,11.083 M5.184,9.406c-0.012,0-0.023-0.001-0.035-0.005c-0.075-0.019-0.12-0.097-0.101-0.171
		c0.761-2.895,0.379-5.702-1.024-7.511c-0.047-0.062-0.036-0.15,0.025-0.198c0.062-0.047,0.15-0.036,0.198,0.025
		C5.702,3.424,6.104,6.323,5.32,9.301C5.303,9.364,5.246,9.406,5.184,9.406"/>
	<path clip-path="url(#SVGID_2_)" fill="#858585" d="M17.978,23.295c-0.002,0-0.005,0.002-0.008,0H4.626
		c-0.116,0-0.211-0.094-0.211-0.21c0-1.604,0.267-3.165,0.549-4.815c0.46-2.701,0.936-5.489,0.15-8.478
		c-0.388,0.653-1.105,1.857-1.213,2.042c-0.028,0.05-0.076,0.085-0.131,0.099c-0.057,0.014-0.115,0.004-0.163-0.026L0.099,9.699
		C0.007,9.642-0.025,9.524,0.022,9.427l3.924-7.889c0.025-0.049,0.068-0.087,0.121-0.105l4.135-1.422C8.226,0.004,8.249,0,8.272,0
		h6.052c0.024,0,0.046,0.004,0.069,0.011l4.135,1.422c0.054,0.018,0.097,0.056,0.121,0.105l3.924,7.889
		c0.05,0.097,0.017,0.215-0.075,0.272l-3.51,2.208c-0.048,0.03-0.105,0.04-0.163,0.026c-0.054-0.014-0.102-0.049-0.132-0.099
		c-0.105-0.185-0.823-1.389-1.212-2.042c-0.786,2.989-0.31,5.777,0.15,8.478c0.278,1.632,0.542,3.175,0.549,4.759
		c0.005,0.019,0.008,0.037,0.008,0.057C18.188,23.202,18.094,23.295,17.978,23.295 M4.838,22.875h12.919
		c-0.023-1.496-0.274-2.974-0.541-4.533c-0.492-2.89-1.003-5.877-0.006-9.137c0.023-0.08,0.093-0.138,0.176-0.148
		c0.082-0.011,0.164,0.029,0.207,0.101c0,0,0.999,1.675,1.354,2.278l3.164-1.991l-3.801-7.641L14.29,0.421H8.308L4.286,1.803
		L0.484,9.444l3.164,1.991c0.356-0.603,1.355-2.278,1.355-2.278c0.043-0.072,0.125-0.111,0.206-0.101
		c0.083,0.01,0.152,0.068,0.176,0.148c0.997,3.26,0.487,6.248-0.006,9.137C5.113,19.901,4.861,21.378,4.838,22.875"/>
	<path clip-path="url(#SVGID_2_)" fill="#858585" d="M18.424,11.083c-0.046,0-0.091-0.023-0.118-0.064
		c-0.042-0.065-0.023-0.153,0.041-0.195l3.526-2.295c0.064-0.041,0.151-0.023,0.193,0.042c0.043,0.064,0.025,0.151-0.04,0.194
		L18.5,11.061C18.476,11.076,18.45,11.083,18.424,11.083 M17.412,9.406c-0.063,0-0.119-0.042-0.137-0.105
		c-0.782-2.978-0.382-5.877,1.074-7.755c0.047-0.061,0.136-0.072,0.197-0.025c0.061,0.048,0.073,0.136,0.025,0.198
		c-1.402,1.809-1.785,4.616-1.024,7.511c0.02,0.074-0.025,0.152-0.1,0.171C17.436,9.405,17.424,9.406,17.412,9.406"/>
	<path clip-path="url(#SVGID_2_)" fill="#858585" d="M11.262,2.867c-1.625,0-3.092-0.899-3.831-2.347
		C7.412,0.484,7.41,0.442,7.425,0.404c0.015-0.037,0.046-0.067,0.084-0.08l0.717-0.246C8.241,0.073,8.256,0.07,8.272,0.07h6.052
		c0.017,0,0.032,0.003,0.046,0.008l0.654,0.225c0.038,0.013,0.069,0.042,0.084,0.079c0.015,0.038,0.014,0.08-0.004,0.116
		C14.368,1.959,12.896,2.867,11.262,2.867 M7.757,0.536c0.712,1.269,2.04,2.05,3.504,2.05c1.475,0,2.807-0.79,3.517-2.071
		l-0.477-0.164H8.295L7.757,0.536z"/>
	<path clip-path="url(#SVGID_2_)" fill="#858585" d="M11.261,2.059c-1.266,0-2.437-0.688-3.053-1.797
		C8.189,0.23,8.189,0.19,8.209,0.157c0.018-0.032,0.052-0.051,0.09-0.051h5.923c0.038,0,0.073,0.019,0.092,0.051
		c0.02,0.033,0.02,0.073,0.001,0.105C13.699,1.371,12.528,2.059,11.261,2.059 M8.484,0.316c0.6,0.95,1.647,1.533,2.777,1.533
		s2.179-0.583,2.778-1.533H8.484z"/>
	<path clip-path="url(#SVGID_2_)" fill="#858585" d="M11.973,1.706H10.55c-0.059,0-0.106-0.047-0.106-0.105V0.729
		c0-0.058,0.047-0.105,0.106-0.105h1.423c0.06,0,0.106,0.047,0.106,0.105v0.872C12.079,1.658,12.032,1.706,11.973,1.706
		 M10.654,1.495h1.215V0.833h-1.215V1.495z"/>
	<path clip-path="url(#SVGID_2_)" fill="#858585" d="M13.869,0.834H8.654c-0.057,0-0.105-0.047-0.105-0.105
		c0-0.059,0.048-0.105,0.105-0.105h5.215c0.059,0,0.104,0.046,0.104,0.105C13.974,0.787,13.928,0.834,13.869,0.834"/>
</g>
</svg>
