<?xml version="1.0" encoding="utf-8"?>
<!-- Generator: Adobe Illustrator 16.0.0, SVG Export Plug-In . SVG Version: 6.00 Build 0)  -->
<!DOCTYPE svg PUBLIC "-//W3C//DTD SVG 1.1//EN" "http://www.w3.org/Graphics/SVG/1.1/DTD/svg11.dtd">
<svg version="1.1" id="Слой_1" xmlns="http://www.w3.org/2000/svg" xmlns:xlink="http://www.w3.org/1999/xlink" x="0px" y="0px"
	 width="33.456px" height="20.474px" viewBox="0 0 33.456 20.474" enable-background="new 0 0 33.456 20.474" xml:space="preserve">
<g id="blue" class="sprite">
	<defs>
		<rect id="SVGID_1_" y="0" width="33.456" height="20.474"/>
	</defs>
	<clipPath id="SVGID_2_">
		<use xlink:href="#SVGID_1_"  overflow="visible"/>
	</clipPath>
	<path clip-path="url(#SVGID_2_)" fill="none" stroke="#6581CC" stroke-miterlimit="10" d="M27.819,11.504l-0.816,5.286
		c-0.285,1.836-1.824,3.184-3.629,3.184H9.773c-1.805,0-3.345-1.348-3.629-3.184l-0.797-5.175c1.36-0.476,2.572-1.471,2.572-2.77
		c0-0.223-0.019-0.433-0.056-0.618h17.73c-0.037,0.185-0.055,0.395-0.055,0.618C25.538,10.051,26.577,10.991,27.819,11.504z"/>
	
		<line clip-path="url(#SVGID_2_)" fill="none" stroke="#6581CC" stroke-miterlimit="10" x1="15.028" y1="13.451" x2="18.119" y2="13.451"/>
	
		<line clip-path="url(#SVGID_2_)" fill="none" stroke="#6581CC" stroke-miterlimit="10" x1="15.646" y1="15.924" x2="17.5" y2="15.924"/>
	
		<path clip-path="url(#SVGID_2_)" fill="none" stroke="#6581CC" stroke-linecap="round" stroke-linejoin="round" stroke-miterlimit="10" d="
		M5.346,11.615c-0.581,0.21-1.199,0.322-1.755,0.322C1.736,11.938,0.5,10.7,0.5,9.464c0-1.237,0.928-2.164,1.856-1.237
		c-0.619-1.854-0.619-3.091,0-4.327c0,0,1.545-3.4,4.636-3.4c3.091,0,4.328,2.472,4.328,2.472"/>
	
		<path clip-path="url(#SVGID_2_)" fill="none" stroke="#6581CC" stroke-linecap="round" stroke-linejoin="round" stroke-miterlimit="10" d="
		M6.682,6.373c0,0,0.952,0.476,1.181,1.854"/>
	
		<path clip-path="url(#SVGID_2_)" fill="none" stroke="#6581CC" stroke-linecap="round" stroke-linejoin="round" stroke-miterlimit="10" d="
		M3.9,5.446c0,0,0.509-1.37,1.236-1.855c1.855-1.236,3.092-0.618,3.092-0.618"/>
	
		<path clip-path="url(#SVGID_2_)" fill="none" stroke="#6581CC" stroke-linecap="round" stroke-linejoin="round" stroke-miterlimit="10" d="
		M27.819,11.504c-1.242-0.513-2.281-1.453-2.281-2.658c0-0.223,0.018-0.433,0.055-0.618"/>
	
		<path clip-path="url(#SVGID_2_)" fill="none" stroke="#6581CC" stroke-linecap="round" stroke-linejoin="round" stroke-miterlimit="10" d="
		M22.138,2.973c0,0,1.235-2.473,4.327-2.473s4.637,3.4,4.637,3.4c0.619,1.237,0.619,2.473,0,4.328c0.928-0.927,1.854,0,1.854,1.236
		c0,1.237-1.235,2.473-3.091,2.473c-0.649,0-1.378-0.154-2.046-0.433"/>
	
		<path clip-path="url(#SVGID_2_)" fill="none" stroke="#6581CC" stroke-linecap="round" stroke-linejoin="round" stroke-miterlimit="10" d="
		M25.594,8.228c0.229-1.378,1.181-1.854,1.181-1.854"/>
	
		<path clip-path="url(#SVGID_2_)" fill="none" stroke="#6581CC" stroke-linecap="round" stroke-linejoin="round" stroke-miterlimit="10" d="
		M9.773,5.755c0,0,0.31-2.782,2.782-2.782c2.473,0,3.091,3.091,3.091,3.091s0.618-1.237,1.855-1.237
		c1.236,0,1.854,1.237,1.854,1.237s1.236-3.091,3.71-3.091c2.473,0,2.781,2.163,2.781,2.163"/>
</g>
</svg>
