<svg xmlns="http://www.w3.org/2000/svg" xmlns:xlink="http://www.w3.org/1999/xlink" viewBox="0 0 44 59">
	<style><![CDATA[
		svg > g { display: none; }
		svg > g:target { display: inline; }
		.grey{fill:none;stroke:#3f3f3f;stroke-linecap:round;stroke-linejoin:round;stroke-width:2px;}
		.white{fill:none;stroke:#fff;stroke-linecap:round;stroke-linejoin:round;stroke-width:2px;}
	]]></style>
	<g class="sprite" id="wash-grey">
		<rect class="grey" x="1" y="1" width="42" height="57"/>
		<line class="grey" x1="1" y1="11" x2="31.68" y2="11"/>
		<line class="grey" x1="38.95" y1="11" x2="43" y2="11"/>
		<circle class="grey" cx="22" cy="32" r="15"/>
		<path class="grey" d="M22,22a9.64,9.64,0,0,1,9.68,9.6A9.47,9.47,0,0,1,22,41a9.48,9.48,0,0,1-9.69-9.4"/>
		<path class="grey" d="M17.16,32A4.82,4.82,0,0,1,22,27.2"/>
	</g>
	<g class="sprite" id="wash-white">
		<rect class="white" x="1" y="1" width="42" height="57"/>
		<line class="white" x1="1" y1="11" x2="31.68" y2="11"/>
		<line class="white" x1="38.95" y1="11" x2="43" y2="11"/>
		<circle class="white" cx="22" cy="32" r="15"/>
		<path class="white" d="M22,22a9.64,9.64,0,0,1,9.68,9.6A9.47,9.47,0,0,1,22,41a9.48,9.48,0,0,1-9.69-9.4"/>
		<path class="white" d="M17.16,32A4.82,4.82,0,0,1,22,27.2"/>
	</g>
</svg>