<svg xmlns="http://www.w3.org/2000/svg" xmlns:xlink="http://www.w3.org/1999/xlink" viewBox="0 0 10.23 20.95">
<g class="cls-2">
	<path class="cls-3" d="M3.49,18.07a0.11,0.11,0,0,1-.08,0L2.77,17.4a0.11,0.11,0,0,1,0-.08,0.11,0.11,0,0,1,0-.07L9,11.06a0.1,0.1,0,0,1,.11,0,0.11,0.11,0,0,1,.07.08l0.18,1.1a0.1,0.1,0,0,1,0,.09L3.56,18a0.1,0.1,0,0,1-.07,0M3,17.32l0.49,0.49L9.1,12.2,9,11.36Z" transform="translate(0 0)"/>
	<path class="cls-3" d="M2.93,14.7h0a0.1,0.1,0,0,1-.06-0.11L3.08,13a0.1,0.1,0,0,1,0-.06L8.39,7.7a0.1,0.1,0,0,1,.11,0,0.11,0.11,0,0,1,.07.08l0.19,1.1a0.1,0.1,0,0,1,0,.09L3,14.67a0.11,0.11,0,0,1-.08,0m0.36-1.6-0.2,1.18L8.53,8.84,8.39,8Z" transform="translate(0 0)"/>
	<path class="cls-3" d="M3.72,10h0a0.11,0.11,0,0,1-.06-0.11L3.88,8.31a0.1,0.1,0,0,1,0-.06L7.82,4.34a0.1,0.1,0,0,1,.11,0A0.11,0.11,0,0,1,8,4.4l0.18,1.1a0.1,0.1,0,0,1,0,.09L3.8,9.94a0.11,0.11,0,0,1-.07,0m0.36-1.6L3.88,9.56,8,5.47,7.82,4.63Z" transform="translate(0 0)"/>
	<path class="cls-3" d="M5.46,20a0.11,0.11,0,0,1-.07,0l-0.64-.64a0.11,0.11,0,0,1,0-.07,0.11,0.11,0,0,1,0-.07l4.78-4.78a0.1,0.1,0,0,1,.18.06l0.18,1.1a0.1,0.1,0,0,1,0,.09L5.53,20a0.11,0.11,0,0,1-.07,0M5,19.29l0.49,0.49,4.22-4.21-0.14-.84Z" transform="translate(0 0)"/>
	<path class="cls-3" d="M6.27,21a0.21,0.21,0,0,1-.15-0.06L2.37,17.14A0.21,0.21,0,0,1,2.31,17L4.52,3.89A0.21,0.21,0,0,1,4.93,4l-2.19,13,3.52,3.52,3.52-3.52L7.6,4A0.21,0.21,0,1,1,8,3.89L10.23,17a0.21,0.21,0,0,1-.06.18L6.42,20.89a0.21,0.21,0,0,1-.15.06" transform="translate(0 0)"/>
	<path class="cls-3" d="M7.57,4.26H5a0.5,0.5,0,0,1-.41-0.21A0.21,0.21,0,0,1,4.9,3.81a0.08,0.08,0,0,0,.07,0H7.57a0.08,0.08,0,0,0,.07,0A0.21,0.21,0,0,1,8,4.05a0.5,0.5,0,0,1-.41.21" transform="translate(0 0)"/><path class="cls-3" d="M8.4,2.77a0.11,0.11,0,0,1-.07,0L5.87,0.28A0.1,0.1,0,0,1,5.94.11H7.22a0.11,0.11,0,0,1,.07,0L8.87,1.71a0.11,0.11,0,0,1,0,.12l-0.4.88a0.11,0.11,0,0,1-.08.06h0M6.2,0.32L8.36,2.48l0.31-.67L7.18,0.32h-1Z" transform="translate(0 0)"/>
	<path class="cls-3" d="M7.13,4.16H5.85a0.11,0.11,0,0,1-.07,0l-2-2A0.11,0.11,0,1,1,3.94,2l2,2h1l-3-3-0.2.23a0.11,0.11,0,0,1-.16-0.14l0.28-.31a0.1,0.1,0,0,1,.08,0A0.1,0.1,0,0,1,4,.76L7.21,4a0.11,0.11,0,0,1,0,.11,0.1,0.1,0,0,1-.1.06" transform="translate(0 0)"/>
	<path class="cls-3" d="M3.59,1.57a0.11,0.11,0,0,1-.1-0.06,0.39,0.39,0,0,1,.07-0.44,0.11,0.11,0,0,1,.16.14,0.18,0.18,0,0,0,0,.21,0.1,0.1,0,0,1-.05.14h0" transform="translate(0 0)"/><path class="cls-3" d="M3.87,2.17a0.11,0.11,0,0,1-.1-0.06L3.5,1.51a0.1,0.1,0,0,1,.05-0.14,0.11,0.11,0,0,1,.14.05L4,2a0.1,0.1,0,0,1-.05.14h0" transform="translate(0 0)"/>
	<path class="cls-3" d="M3.64,1.36A0.21,0.21,0,0,1,3.49,1l0.76-.84a0.21,0.21,0,1,1,.31.28L3.8,1.29a0.21,0.21,0,0,1-.16.07" transform="translate(0 0)"/>
	<path class="cls-3" d="M3.59,1.68A0.21,0.21,0,0,1,3.4,1.55,0.5,0.5,0,0,1,3.49,1a0.21,0.21,0,0,1,.31.28,0.08,0.08,0,0,0,0,.09,0.21,0.21,0,0,1-.11.28l-0.09,0" transform="translate(0 0)"/>
	<path class="cls-3" d="M4.7,4.09A0.21,0.21,0,0,1,4.51,4L3.4,1.55a0.21,0.21,0,0,1,.38-0.18l1.1,2.41a0.21,0.21,0,0,1-.1.28l-0.09,0" transform="translate(0 0)"/><path class="cls-3" d="M7.57,4.26H5A0.5,0.5,0,0,1,4.51,4a0.21,0.21,0,0,1,.1-0.28,0.21,0.21,0,0,1,.28.1,0.08,0.08,0,0,0,.08,0H7.57a0.08,0.08,0,0,0,.08,0A0.21,0.21,0,1,1,8,4a0.5,0.5,0,0,1-.46.29" transform="translate(0 0)"/><path class="cls-3" d="M7.84,4.09l-0.09,0a0.21,0.21,0,0,1-.1-0.28l1.1-2.41a0.21,0.21,0,0,1,.38.18L8,4a0.21,0.21,0,0,1-.19.12" transform="translate(0 0)"/><path class="cls-3" d="M8.95,1.68l-0.09,0a0.21,0.21,0,0,1-.1-0.28,0.08,0.08,0,0,0,0-.09A0.21,0.21,0,1,1,9.05,1a0.5,0.5,0,0,1,.09.55,0.21,0.21,0,0,1-.19.12" transform="translate(0 0)"/><path class="cls-3" d="M8.9,1.36a0.21,0.21,0,0,1-.16-0.07L8,0.45A0.21,0.21,0,1,1,8.29.17L9.05,1a0.21,0.21,0,0,1-.16.35" transform="translate(0 0)"/><path class="cls-3" d="M8.14,0.52A0.21,0.21,0,0,1,8,.45a0.07,0.07,0,0,0-.06,0H4.62a0.08,0.08,0,0,0-.06,0A0.21,0.21,0,1,1,4.25.17,0.5,0.5,0,0,1,4.62,0h3.3a0.49,0.49,0,0,1,.37.17,0.21,0.21,0,0,1,0,.3,0.21,0.21,0,0,1-.14.05" transform="translate(0 0)"/><path class="cls-3" d="M1.56,12.64l-0.07,0a0.14,0.14,0,0,1,0-.19l2.39-4a0.14,0.14,0,0,1,.19,0,0.14,0.14,0,0,1,0,.19l-2.39,4a0.14,0.14,0,0,1-.12.07" transform="translate(0 0)"/><path class="cls-3" d="M0.57,14.31a0.14,0.14,0,0,1-.13-0.1L0,12.83a0.14,0.14,0,0,1,0-.12L4.23,6.08a0.14,0.14,0,0,1,.26.1L3.7,10.84v0l-1.59,3A0.14,0.14,0,0,1,2,14L0.6,14.3h0m-0.28-1.5L0.66,14l1.22-.28,1.54-3,0.67-4Z" transform="translate(0 0)"/>
</g>
</svg>